{"title":"Uncaged.2016.WEBRip.480p.x264.AAC-VYTO [P2PDL]","uid":13435739,"size":360133997,"categoryP":"video","categoryS":"movies","magnet":"?xt=urn:btih:79980d1cde8499bb705ff61b518843cc956a6fb9&amp;dn=Uncaged.2016.WEBRip.480p.x264.AAC-VYTO+%5BP2PDL%5D&amp;tr=udp%3A%2F%2Ftracker.leechers-paradise.org%3A6969&amp;tr=udp%3A%2F%2Fzer0day.ch%3A1337&amp;tr=udp%3A%2F%2Fopen.demonii.com%3A1337&amp;tr=udp%3A%2F%2Ftracker.coppersurfer.tk%3A6969&amp;tr=udp%3A%2F%2Fexodus.desync.com%3A6969","seeders":1,"leechers":0,"uploader":"VYTOP2PDL","files":7,"time":1454655034,"description":"____    ____ ____    ____ .___________.  ______   \r\n     /   /      /   / |           | /  __    \r\n    /   /      /   /  `---|  |----`|  |  |  | \r\n        /     _    _/       |  |     |  |  |  | \r\n       /        |  |         |  |     |  `--'  | \r\n    __/         |__|         |__|      ______/  \r\n                                                  \r\nPresenting Small Encodes with quality for years!\r\n                                                                                                   \r\n                                                                                                   \r\n\r\n\r\nUncaged.2016.WEBRip.480p.x264.AAC-VYTO\r\n\r\n\r\nGenre: Comedy, Horror, Thriller  \nhttp://www.imdb.com/title/tt3562786/\r\n\r\n\r\n\r\nFormat                                   : MPEG-4\r\nFile size                                : 336 MiB\r\nDuration                                 : 1h 35mn\r\nOverall bit rate                         : 492 Kbps\r\n\r\nVideo\r\nFormat                                   : AVC\r\nBit rate                                 : 458 Kbps\r\nWidth                                    : 720 pixels\r\nHeight                                   : 384 pixels\r\nDisplay aspect ratio                     : 1.85:1\r\nFrame rate mode                          : Constant\r\nFrame rate                               : 23.976 fps\r\nBit depth                                : 8 bits\r\nStream size                              : 312 MiB (93%)\r\nWriting library                          : x264\r\n\r\nAudio\r\nFormat                                   : AAC\r\nBit rate mode                            : Variable\r\nBit rate                                 : 32.0 Kbps\r\nChannel(s)                               : 2 channels \r\nChannel positions                        : Front: L R \r\nSampling rate                            : 48.0 KHz \r\nStream size                              : 21.8 MiB (7%)\r\nLanguage                                 : English\r\n\r\nSubtitle                                 : Yes (English)\r\n\r\nScreen Shots: (Click to view)\r\n \nhttp://ititli.com/XXD \nhttp://ititli.com/XXa \nhttp://ititli.com/XXb \nhttp://ititli.com/XXz \nhttp://ititli.com/XXI \nhttp://ititli.com/XXO \nhttp://ititli.com/Xq9 \nhttp://ititli.com/XqX \nhttp://ititli.com/Xqq \nhttp://ititli.com/Xqr \nhttp://ititli.com/Xq1 \nhttp://ititli.com/XqT\r\n\r\n----------------------------------------------------------------------------------------------------\r\n\r\n\r\nEncoder Notes: Looking For Early Access To Anything You Can Provide WEBDL, DVDScr, DVDR, BluRay,\r\nDirect Audio, Music Releases and Seedboxes. If You Got anything to offer please contact us.\r\n\r\nSupport us by donating BC - 1FgwdzPsd1y25Gea8wP1qni35uGCtmkRCD\r\n\r\nSend some love!\r\nFind us and join us!","torrent":{"xt":"urn:btih:79980d1cde8499bb705ff61b518843cc956a6fb9","amp;dn":"Uncaged.2016.WEBRip.480p.x264.AAC-VYTO+%5BP2PDL%5D","amp;tr":["udp%3A%2F%2Ftracker.leechers-paradise.org%3A6969","udp%3A%2F%2Fzer0day.ch%3A1337","udp%3A%2F%2Fopen.demonii.com%3A1337","udp%3A%2F%2Ftracker.coppersurfer.tk%3A6969","udp%3A%2F%2Fexodus.desync.com%3A6969"],"infoHash":"79980d1cde8499bb705ff61b518843cc956a6fb9","infoHashBuffer":{"type":"Buffer","data":[121,152,13,28,222,132,153,187,112,95,246,27,81,136,67,204,149,106,111,185]},"announce":[],"urlList":[]}}